<svg width="375" height="791" viewBox="0 0 375 791" fill="none" xmlns="http://www.w3.org/2000/svg">
<path d="M-545.007 166.86C-170.474 -129.173 -3.44106 628.353 489.663 -228" stroke="black" stroke-miterlimit="10" stroke-linecap="round" stroke-linejoin="round" stroke-dasharray="1 1"/>
<path d="M-542.67 179.438C-155.099 -133.515 11.6877 624.759 494.583 -205.689" stroke="black" stroke-width="1.0645" stroke-miterlimit="10" stroke-linecap="round" stroke-linejoin="round" stroke-dasharray="1 1"/>
<path d="M-540.456 192.165C-139.847 -137.858 26.694 621.315 499.38 -183.528" stroke="black" stroke-width="1.129" stroke-miterlimit="10" stroke-linecap="round" stroke-linejoin="round" stroke-dasharray="1 1"/>
<path d="M-538.119 204.743C-124.596 -142.2 41.8223 617.871 504.176 -161.217" stroke="black" stroke-width="1.1935" stroke-miterlimit="10" stroke-linecap="round" stroke-linejoin="round" stroke-dasharray="1 1"/>
<path d="M-535.782 217.321C-109.344 -146.542 56.9512 614.277 509.096 -138.906" stroke="black" stroke-width="1.2581" stroke-miterlimit="10" stroke-linecap="round" stroke-linejoin="round" stroke-dasharray="1 1"/>
<path d="M-533.445 230.049C-93.9685 -150.885 72.0805 610.834 513.894 -116.595" stroke="black" stroke-width="1.3226" stroke-miterlimit="10" stroke-linecap="round" stroke-linejoin="round" stroke-dasharray="1 1"/>
<path d="M-531.231 242.627C-78.7168 -155.227 87.2092 607.389 518.691 -94.4336" stroke="black" stroke-width="1.3871" stroke-miterlimit="10" stroke-linecap="round" stroke-linejoin="round" stroke-dasharray="1 1"/>
<path d="M-528.894 255.355C-63.4649 -159.57 102.215 603.796 523.61 -72.1225" stroke="black" stroke-width="1.4516" stroke-miterlimit="10" stroke-linecap="round" stroke-linejoin="round" stroke-dasharray="1 1"/>
<path d="M-526.557 267.933C-48.2126 -163.912 117.344 600.352 528.408 -49.8115" stroke="black" stroke-width="1.5161" stroke-miterlimit="10" stroke-linecap="round" stroke-linejoin="round" stroke-dasharray="1 1"/>
<path d="M-524.343 280.661C-32.9608 -168.254 132.473 596.908 533.328 -27.6502" stroke="black" stroke-width="1.5806" stroke-miterlimit="10" stroke-linecap="round" stroke-linejoin="round" stroke-dasharray="1 1"/>
<path d="M-522.005 293.239C-17.5855 -172.597 147.603 593.314 538.125 -5.33931" stroke="black" stroke-width="1.6452" stroke-miterlimit="10" stroke-linecap="round" stroke-linejoin="round" stroke-dasharray="1 1"/>
<path d="M-519.669 305.966C-2.33404 -176.939 162.731 589.87 542.922 16.9717" stroke="black" stroke-width="1.7097" stroke-miterlimit="10" stroke-linecap="round" stroke-linejoin="round" stroke-dasharray="1 1"/>
<path d="M-517.332 318.545C12.9178 -181.282 177.737 586.276 547.842 39.2828" stroke="black" stroke-width="1.7742" stroke-miterlimit="10" stroke-linecap="round" stroke-linejoin="round" stroke-dasharray="1 1"/>
<path d="M-515.118 331.272C28.17 -185.474 192.866 582.833 552.516 61.5938" stroke="black" stroke-width="1.8387" stroke-miterlimit="10" stroke-linecap="round" stroke-linejoin="round" stroke-dasharray="1 1"/>
<path d="M-512.781 343.85C43.4219 -189.967 207.995 579.388 557.436 83.7549" stroke="black" stroke-width="1.9032" stroke-miterlimit="10" stroke-linecap="round" stroke-linejoin="round" stroke-dasharray="1 1"/>
<path d="M-510.444 356.428C58.7967 -194.309 223.124 575.795 562.356 106.066" stroke="black" stroke-width="1.9677" stroke-miterlimit="10" stroke-linecap="round" stroke-linejoin="round" stroke-dasharray="1 1"/>
<path d="M-508.107 369.156C74.048 -198.651 238.129 572.351 567.152 128.227" stroke="black" stroke-width="2.0323" stroke-miterlimit="10" stroke-linecap="round" stroke-linejoin="round" stroke-dasharray="1 1"/>
<path d="M-505.893 381.734C89.3008 -202.994 253.259 568.757 571.95 150.538" stroke="black" stroke-width="2.0968" stroke-miterlimit="10" stroke-linecap="round" stroke-linejoin="round" stroke-dasharray="1 1"/>
<path d="M-503.556 394.462C104.552 -207.336 268.387 565.313 576.869 172.849" stroke="black" stroke-width="2.1613" stroke-miterlimit="10" stroke-linecap="round" stroke-linejoin="round" stroke-dasharray="1 1"/>
<path d="M-501.219 407.04C119.927 -211.678 283.516 561.719 581.666 195.011" stroke="black" stroke-width="2.2258" stroke-miterlimit="10" stroke-linecap="round" stroke-linejoin="round" stroke-dasharray="1 1"/>
<path d="M-498.882 419.768C135.179 -216.021 298.645 558.425 586.587 217.471" stroke="black" stroke-width="2.2903" stroke-miterlimit="10" stroke-linecap="round" stroke-linejoin="round" stroke-dasharray="1 1"/>
<path d="M-496.668 432.345C150.431 -220.363 313.651 554.831 591.261 239.632" stroke="black" stroke-width="2.3548" stroke-miterlimit="10" stroke-linecap="round" stroke-linejoin="round" stroke-dasharray="1 1"/>
<path d="M-494.331 445.073C165.683 -224.556 328.78 551.387 596.18 261.943" stroke="black" stroke-width="2.4194" stroke-miterlimit="10" stroke-linecap="round" stroke-linejoin="round" stroke-dasharray="1 1"/>
<path d="M-491.994 457.651C181.058 -229.048 343.909 547.794 600.977 284.105" stroke="black" stroke-width="2.4839" stroke-miterlimit="10" stroke-linecap="round" stroke-linejoin="round" stroke-dasharray="1 1"/>
<path d="M-489.78 470.229C196.309 -233.391 359.037 544.35 605.897 306.416" stroke="black" stroke-width="2.5484" stroke-miterlimit="10" stroke-linecap="round" stroke-linejoin="round" stroke-dasharray="1 1"/>
<path d="M-487.443 482.957C211.562 -237.733 374.044 540.756 610.695 328.727" stroke="black" stroke-width="2.6129" stroke-miterlimit="10" stroke-linecap="round" stroke-linejoin="round" stroke-dasharray="1 1"/>
<path d="M-485.106 495.535C226.814 -242.075 389.173 537.162 615.491 350.888" stroke="black" stroke-width="2.6774" stroke-miterlimit="10" stroke-linecap="round" stroke-linejoin="round" stroke-dasharray="1 1"/>
<path d="M-482.769 508.263C242.189 -246.418 404.302 533.868 620.411 373.349" stroke="black" stroke-width="2.7419" stroke-miterlimit="10" stroke-linecap="round" stroke-linejoin="round" stroke-dasharray="1 1"/>
<path d="M-480.555 520.841C257.317 -250.76 419.307 530.274 625.208 395.51" stroke="black" stroke-width="2.8065" stroke-miterlimit="10" stroke-linecap="round" stroke-linejoin="round" stroke-dasharray="1 1"/>
<path d="M-478.218 533.569C272.693 -255.103 434.56 526.83 630.005 417.821" stroke="black" stroke-width="2.871" stroke-miterlimit="10" stroke-linecap="round" stroke-linejoin="round" stroke-dasharray="1 1"/>
<path d="M-475.881 546.147C287.944 -259.445 449.688 523.237 634.925 439.982" stroke="black" stroke-width="2.9355" stroke-miterlimit="10" stroke-linecap="round" stroke-linejoin="round" stroke-dasharray="1 1"/>
<path d="M-473.544 558.874C303.319 -263.787 464.817 519.793 639.845 462.443" stroke="black" stroke-width="3" stroke-miterlimit="10" stroke-linecap="round" stroke-linejoin="round" stroke-dasharray="1 1"/>
<path d="M-653 252.809C-279.328 23.71 -239.723 1335.42 583.02 192.165" stroke="black" stroke-miterlimit="10" stroke-linecap="round" stroke-linejoin="round"/>
<path d="M-652.016 271.227C-266.29 5.89108 -216.722 1322.99 586.34 216.124" stroke="black" stroke-width="0.9758" stroke-miterlimit="10" stroke-linecap="round" stroke-linejoin="round"/>
<path d="M-651.155 289.645C-253.253 -12.0774 -193.967 1310.41 589.415 240.082" stroke="black" stroke-width="0.9516" stroke-miterlimit="10" stroke-linecap="round" stroke-linejoin="round"/>
<path d="M-650.171 308.063C-240.091 -29.8964 -170.966 1297.98 592.737 263.89" stroke="black" stroke-width="0.9274" stroke-miterlimit="10" stroke-linecap="round" stroke-linejoin="round"/>
<path d="M-649.187 326.63C-227.054 -47.5654 -147.965 1285.7 595.934 287.998" stroke="black" stroke-width="0.9032" stroke-miterlimit="10" stroke-linecap="round" stroke-linejoin="round"/>
<path d="M-648.326 345.048C-214.015 -65.534 -125.21 1273.28 599.01 311.956" stroke="black" stroke-width="0.879" stroke-miterlimit="10" stroke-linecap="round" stroke-linejoin="round"/>
<path d="M-647.342 363.466C-200.855 -83.3529 -102.209 1260.85 602.331 335.914" stroke="black" stroke-width="0.8548" stroke-miterlimit="10" stroke-linecap="round" stroke-linejoin="round"/>
<path d="M-646.358 382.033C-187.694 -101.172 -79.2083 1248.57 605.529 360.022" stroke="black" stroke-width="0.8306" stroke-miterlimit="10" stroke-linecap="round" stroke-linejoin="round"/>
<path d="M-645.497 400.451C-174.779 -118.991 -56.4537 1236.14 608.603 383.83" stroke="black" stroke-width="0.8065" stroke-miterlimit="10" stroke-linecap="round" stroke-linejoin="round"/>
<path d="M-644.513 418.869C-161.618 -136.809 -33.4524 1223.71 611.925 407.788" stroke="black" stroke-width="0.7823" stroke-miterlimit="10" stroke-linecap="round" stroke-linejoin="round"/>
<path d="M-643.529 437.287C-148.457 -154.778 -10.4522 1211.13 615.122 431.746" stroke="black" stroke-width="0.7581" stroke-miterlimit="10" stroke-linecap="round" stroke-linejoin="round"/>
<path d="M-642.668 455.854C-135.543 -172.447 12.3025 1198.86 618.197 455.854" stroke="black" stroke-width="0.7339" stroke-miterlimit="10" stroke-linecap="round" stroke-linejoin="round"/>
<path d="M-641.684 474.272C-122.381 -190.266 35.3038 1186.43 621.518 479.813" stroke="black" stroke-width="0.7097" stroke-miterlimit="10" stroke-linecap="round" stroke-linejoin="round"/>
<path d="M-640.7 492.69C-109.22 -208.235 58.3046 1174 624.716 503.771" stroke="black" stroke-width="0.6855" stroke-miterlimit="10" stroke-linecap="round" stroke-linejoin="round"/>
<path d="M-639.839 511.258C-96.3056 -225.904 81.0594 1161.72 627.791 527.729" stroke="black" stroke-width="0.6613" stroke-miterlimit="10" stroke-linecap="round" stroke-linejoin="round"/>
<path d="M-638.855 529.675C-83.1444 -243.723 104.06 1149.29 631.112 551.687" stroke="black" stroke-width="0.6371" stroke-miterlimit="10" stroke-linecap="round" stroke-linejoin="round"/>
<path d="M-637.871 548.093C-70.1065 -261.691 126.938 1136.86 634.31 575.645" stroke="black" stroke-width="0.6129" stroke-miterlimit="10" stroke-linecap="round" stroke-linejoin="round"/>
<path d="M-637.01 566.511C-57.0688 -279.51 149.816 1124.29 637.385 599.603" stroke="black" stroke-width="0.5887" stroke-miterlimit="10" stroke-linecap="round" stroke-linejoin="round"/>
<path d="M-636.026 585.079C-43.9075 -297.329 172.817 1112.01 640.706 623.711" stroke="black" stroke-width="0.5645" stroke-miterlimit="10" stroke-linecap="round" stroke-linejoin="round"/>
<path d="M-635.042 603.496C-30.7463 -315.148 195.818 1099.58 643.905 647.519" stroke="black" stroke-width="0.5403" stroke-miterlimit="10" stroke-linecap="round" stroke-linejoin="round"/>
<path d="M-634.181 621.914C-17.7083 -332.967 218.696 1087.15 647.103 671.478" stroke="black" stroke-width="0.5161" stroke-miterlimit="10" stroke-linecap="round" stroke-linejoin="round"/>
<path d="M-633.197 640.482C-4.67054 -350.785 241.574 1074.87 650.301 695.585" stroke="black" stroke-width="0.4919" stroke-miterlimit="10" stroke-linecap="round" stroke-linejoin="round"/>
<path d="M-632.213 658.899C8.49024 -368.604 264.575 1062.44 653.498 719.543" stroke="black" stroke-width="0.4677" stroke-miterlimit="10" stroke-linecap="round" stroke-linejoin="round"/>
<path d="M-631.352 677.317C21.5284 -386.423 287.453 1050.02 656.573 743.502" stroke="black" stroke-width="0.4435" stroke-miterlimit="10" stroke-linecap="round" stroke-linejoin="round"/>
<path d="M-630.368 695.735C34.5658 -404.392 310.33 1037.44 659.894 767.31" stroke="black" stroke-width="0.4194" stroke-miterlimit="10" stroke-linecap="round" stroke-linejoin="round"/>
<path d="M-629.384 714.303C47.7271 -422.061 333.331 1025.16 663.092 791.418" stroke="black" stroke-width="0.3952" stroke-miterlimit="10" stroke-linecap="round" stroke-linejoin="round"/>
<path d="M-628.523 732.72C60.7643 -439.88 356.208 1012.73 666.289 815.376" stroke="black" stroke-width="0.371" stroke-miterlimit="10" stroke-linecap="round" stroke-linejoin="round"/>
<path d="M-627.54 751.138C73.8022 -457.848 379.086 1000.3 669.488 839.334" stroke="black" stroke-width="0.3468" stroke-miterlimit="10" stroke-linecap="round" stroke-linejoin="round"/>
<path d="M-626.555 769.706C86.9635 -475.517 402.088 988.024 672.686 863.442" stroke="black" stroke-width="0.3226" stroke-miterlimit="10" stroke-linecap="round" stroke-linejoin="round"/>
<path d="M-625.694 788.123C100.001 -493.486 424.965 975.596 675.761 887.25" stroke="black" stroke-width="0.2984" stroke-miterlimit="10" stroke-linecap="round" stroke-linejoin="round"/>
<path d="M-624.71 806.541C113.039 -511.305 447.843 963.168 679.082 911.208" stroke="black" stroke-width="0.2742" stroke-miterlimit="10" stroke-linecap="round" stroke-linejoin="round"/>
<path d="M-623.726 824.959C126.2 -529.124 470.844 950.739 682.28 935.166" stroke="black" stroke-width="0.25" stroke-miterlimit="10" stroke-linecap="round" stroke-linejoin="round"/>
<path d="M554.483 825.109C100.616 1063.79 56.2135 588.073 -503.31 876.918" stroke="black" stroke-width="2.7419" stroke-miterlimit="10" stroke-linecap="round" stroke-linejoin="round" stroke-dasharray="1 1"/>
<path d="M555.96 811.483C89.7924 1065.14 40.7157 573.698 -504.417 851.912" stroke="black" stroke-width="2.6774" stroke-miterlimit="10" stroke-linecap="round" stroke-linejoin="round" stroke-dasharray="1 1"/>
<path d="M557.436 797.857C78.9685 1066.49 25.2178 559.324 -505.524 826.906" stroke="black" stroke-width="2.6129" stroke-miterlimit="10" stroke-linecap="round" stroke-linejoin="round" stroke-dasharray="1 1"/>
<path d="M558.789 784.23C68.1446 1067.83 9.71994 544.949 -506.754 801.75" stroke="black" stroke-width="2.5484" stroke-miterlimit="10" stroke-linecap="round" stroke-linejoin="round" stroke-dasharray="1 1"/>
<path d="M560.265 770.454C57.3208 1069.03 -5.65491 530.424 -507.861 776.594" stroke="black" stroke-width="2.4839" stroke-miterlimit="10" stroke-linecap="round" stroke-linejoin="round" stroke-dasharray="1 1"/>
<path d="M561.74 756.828C46.4963 1070.38 -21.1533 516.049 -508.968 751.438" stroke="black" stroke-width="2.4194" stroke-miterlimit="10" stroke-linecap="round" stroke-linejoin="round" stroke-dasharray="1 1"/>
<path d="M563.094 743.202C35.673 1071.73 -36.6506 501.675 -510.198 726.431" stroke="black" stroke-width="2.3548" stroke-miterlimit="10" stroke-linecap="round" stroke-linejoin="round" stroke-dasharray="1 1"/>
<path d="M564.569 729.576C24.8486 1072.93 -52.149 487.299 -511.428 701.425" stroke="black" stroke-width="2.2903" stroke-miterlimit="10" stroke-linecap="round" stroke-linejoin="round" stroke-dasharray="1 1"/>
<path d="M565.923 715.95C13.9021 1074.42 -67.6464 472.925 -512.535 676.269" stroke="black" stroke-width="2.2258" stroke-miterlimit="10" stroke-linecap="round" stroke-linejoin="round" stroke-dasharray="1 1"/>
<path d="M567.399 702.174C3.20114 1075.47 -83.1443 458.4 -513.765 651.113" stroke="black" stroke-width="2.1613" stroke-miterlimit="10" stroke-linecap="round" stroke-linejoin="round" stroke-dasharray="1 1"/>
<path d="M568.874 688.548C-7.62308 1076.82 -98.6426 444.025 -514.872 626.107" stroke="black" stroke-width="2.0968" stroke-miterlimit="10" stroke-linecap="round" stroke-linejoin="round" stroke-dasharray="1 1"/>
<path d="M570.227 674.921C-18.5701 1078.17 -114.141 429.65 -516.102 600.951" stroke="black" stroke-width="2.0323" stroke-miterlimit="10" stroke-linecap="round" stroke-linejoin="round" stroke-dasharray="1 1"/>
<path d="M571.703 661.295C-29.394 1079.51 -129.638 415.126 -517.209 575.795" stroke="black" stroke-width="1.9677" stroke-miterlimit="10" stroke-linecap="round" stroke-linejoin="round" stroke-dasharray="1 1"/>
<path d="M573.179 647.519C-40.2178 1080.71 -145.136 400.751 -518.316 550.788" stroke="black" stroke-width="1.9032" stroke-miterlimit="10" stroke-linecap="round" stroke-linejoin="round" stroke-dasharray="1 1"/>
<path d="M574.532 633.893C-51.0418 1082.06 -160.511 386.376 -519.546 525.632" stroke="black" stroke-width="1.8387" stroke-miterlimit="10" stroke-linecap="round" stroke-linejoin="round" stroke-dasharray="1 1"/>
<path d="M576.008 620.267C-61.866 1083.41 -176.009 372.001 -520.653 500.626" stroke="black" stroke-width="1.7742" stroke-miterlimit="10" stroke-linecap="round" stroke-linejoin="round" stroke-dasharray="1 1"/>
<path d="M577.484 606.641C-72.5665 1084.75 -191.507 357.476 -521.76 475.47" stroke="black" stroke-width="1.7097" stroke-miterlimit="10" stroke-linecap="round" stroke-linejoin="round" stroke-dasharray="1 1"/>
<path d="M578.838 592.865C-83.5134 1085.95 -207.005 343.101 -522.99 450.314" stroke="black" stroke-width="1.6452" stroke-miterlimit="10" stroke-linecap="round" stroke-linejoin="round" stroke-dasharray="1 1"/>
<path d="M580.314 579.239C-94.3373 1087.15 -222.503 328.577 -524.22 425.158" stroke="black" stroke-width="1.5806" stroke-miterlimit="10" stroke-linecap="round" stroke-linejoin="round" stroke-dasharray="1 1"/>
<path d="M581.667 565.613C-105.161 1088.5 -238 314.202 -525.327 400.152" stroke="black" stroke-width="1.5161" stroke-miterlimit="10" stroke-linecap="round" stroke-linejoin="round" stroke-dasharray="1 1"/>
<path d="M583.143 551.986C-115.985 1089.85 -253.498 299.827 -526.557 375.146" stroke="black" stroke-width="1.4516" stroke-miterlimit="10" stroke-linecap="round" stroke-linejoin="round" stroke-dasharray="1 1"/>
<path d="M584.618 538.36C-126.81 1091.19 -268.997 285.452 -527.664 349.989" stroke="black" stroke-width="1.3871" stroke-miterlimit="10" stroke-linecap="round" stroke-linejoin="round" stroke-dasharray="1 1"/>
<path d="M585.971 524.584C-137.633 1092.39 -284.495 271.078 -528.894 324.834" stroke="black" stroke-width="1.3226" stroke-miterlimit="10" stroke-linecap="round" stroke-linejoin="round" stroke-dasharray="1 1"/>
<path d="M587.447 510.958C-148.457 1093.74 -299.992 256.553 -530.001 299.827" stroke="black" stroke-width="1.2581" stroke-miterlimit="10" stroke-linecap="round" stroke-linejoin="round" stroke-dasharray="1 1"/>
<path d="M588.923 497.332C-159.281 1095.09 -315.49 242.178 -531.231 274.671" stroke="black" stroke-width="1.1935" stroke-miterlimit="10" stroke-linecap="round" stroke-linejoin="round" stroke-dasharray="1 1"/>
<path d="M590.276 483.706C-170.105 1096.43 -330.988 227.803 -532.338 249.665" stroke="black" stroke-width="1.129" stroke-miterlimit="10" stroke-linecap="round" stroke-linejoin="round" stroke-dasharray="1 1"/>
<path d="M591.752 469.93C-180.929 1097.63 -346.363 213.279 -533.568 224.359" stroke="black" stroke-width="1.0645" stroke-miterlimit="10" stroke-linecap="round" stroke-linejoin="round" stroke-dasharray="1 1"/>
<path d="M593.105 456.304C-191.876 1098.98 -361.984 198.904 -534.798 199.353" stroke="black" stroke-miterlimit="10" stroke-linecap="round" stroke-linejoin="round" stroke-dasharray="1 1"/>
</svg>
